<svg width="190" height="190" viewBox="0 0 190 190" fill="none" xmlns="http://www.w3.org/2000/svg">
<circle cx="95" cy="95" r="95" fill="black"/>
<g clip-path="url(#clip0_390_6222)">
<path d="M106.64 75.6008C106.64 69.1722 101.429 63.9609 95.0005 63.9609C88.5719 63.9609 83.3607 69.1722 83.3607 75.6008C83.3607 82.0294 88.5719 87.2406 95.0005 87.2406C101.429 87.2406 106.64 82.0294 106.64 75.6008ZM92.2834 93.1939C85.0897 88.7902 73.4377 87.5801 67.5741 87.2467C65.6039 87.1352 63.9609 88.6362 63.9609 90.5313V117.545C63.9609 119.283 65.3662 120.732 67.1728 120.825C72.4665 121.103 83.1764 122.12 90.5786 125.849C91.7147 126.421 93.0618 125.641 93.0618 124.409V94.5834C93.0606 94.0172 92.7805 93.4983 92.2834 93.1939ZM122.427 87.2467C116.565 87.5789 104.911 88.7902 97.7189 93.1939C97.2218 93.4983 96.9417 94.0378 96.9417 94.6041V124.406C96.9417 125.641 98.2924 126.422 99.4322 125.849C106.833 122.124 117.537 121.107 122.829 120.829C124.636 120.734 126.041 119.285 126.041 117.548V90.5313C126.04 88.6362 124.397 87.1352 122.427 87.2467Z" fill="#FCF8F5"/>
</g>
<defs>
<clipPath id="clip0_390_6222">
<rect width="62.0792" height="62.0792" fill="white" transform="translate(63.9609 63.9609)"/>
</clipPath>
</defs>
</svg>
